<mxfile host="app.diagrams.net" modified="2022-08-25T02:49:18.472Z" agent="5.0 (Windows NT 10.0; Win64; x64) AppleWebKit/537.36 (KHTML, like Gecko) Chrome/103.0.5060.114 Safari/537.36 OPR/89.0.4447.64" etag="jWd3S7B6XFngIlh3PMKD" version="20.2.7" type="github">
  <diagram id="R2lEEEUBdFMjLlhIrx00" name="Page-1">
    <mxGraphModel dx="1381" dy="795" grid="0" gridSize="10" guides="1" tooltips="1" connect="1" arrows="1" fold="1" page="1" pageScale="1" pageWidth="1600" pageHeight="900" background="#2B2B2B" math="0" shadow="1" extFonts="Permanent Marker^https://fonts.googleapis.com/css?family=Permanent+Marker">
      <root>
        <mxCell id="0" />
        <mxCell id="1" parent="0" />
        <mxCell id="C-vyLk0tnHw3VtMMgP7b-23" value="users" style="shape=table;startSize=30;container=1;collapsible=1;childLayout=tableLayout;fixedRows=1;rowLines=0;fontStyle=1;align=center;resizeLast=1;rounded=0;fillColor=#B2C9AB;strokeColor=#788AA3;fontColor=#0C4D35;" parent="1" vertex="1">
          <mxGeometry x="444" y="141" width="209" height="150" as="geometry" />
        </mxCell>
        <mxCell id="C-vyLk0tnHw3VtMMgP7b-24" value="" style="shape=partialRectangle;collapsible=0;dropTarget=0;pointerEvents=0;fillColor=none;points=[[0,0.5],[1,0.5]];portConstraint=eastwest;top=0;left=0;right=0;bottom=1;rounded=0;strokeColor=#788AA3;fontColor=#FFFFFF;" parent="C-vyLk0tnHw3VtMMgP7b-23" vertex="1">
          <mxGeometry y="30" width="209" height="30" as="geometry" />
        </mxCell>
        <mxCell id="C-vyLk0tnHw3VtMMgP7b-25" value="PK" style="shape=partialRectangle;overflow=hidden;connectable=0;fillColor=none;top=0;left=0;bottom=0;right=0;fontStyle=1;rounded=0;strokeColor=#788AA3;fontColor=#FFFFFF;" parent="C-vyLk0tnHw3VtMMgP7b-24" vertex="1">
          <mxGeometry width="30" height="30" as="geometry">
            <mxRectangle width="30" height="30" as="alternateBounds" />
          </mxGeometry>
        </mxCell>
        <mxCell id="C-vyLk0tnHw3VtMMgP7b-26" value="id" style="shape=partialRectangle;overflow=hidden;connectable=0;fillColor=none;top=0;left=0;bottom=0;right=0;align=left;spacingLeft=6;fontStyle=5;rounded=0;strokeColor=#788AA3;fontColor=#FFFFFF;" parent="C-vyLk0tnHw3VtMMgP7b-24" vertex="1">
          <mxGeometry x="30" width="179" height="30" as="geometry">
            <mxRectangle width="179" height="30" as="alternateBounds" />
          </mxGeometry>
        </mxCell>
        <mxCell id="C-vyLk0tnHw3VtMMgP7b-27" value="" style="shape=partialRectangle;collapsible=0;dropTarget=0;pointerEvents=0;fillColor=none;points=[[0,0.5],[1,0.5]];portConstraint=eastwest;top=0;left=0;right=0;bottom=0;rounded=0;strokeColor=#788AA3;fontColor=#FFFFFF;" parent="C-vyLk0tnHw3VtMMgP7b-23" vertex="1">
          <mxGeometry y="60" width="209" height="30" as="geometry" />
        </mxCell>
        <mxCell id="C-vyLk0tnHw3VtMMgP7b-28" value="" style="shape=partialRectangle;overflow=hidden;connectable=0;fillColor=none;top=0;left=0;bottom=0;right=0;rounded=0;strokeColor=#788AA3;fontColor=#FFFFFF;" parent="C-vyLk0tnHw3VtMMgP7b-27" vertex="1">
          <mxGeometry width="30" height="30" as="geometry">
            <mxRectangle width="30" height="30" as="alternateBounds" />
          </mxGeometry>
        </mxCell>
        <mxCell id="C-vyLk0tnHw3VtMMgP7b-29" value="name VARCHAR" style="shape=partialRectangle;overflow=hidden;connectable=0;fillColor=none;top=0;left=0;bottom=0;right=0;align=left;spacingLeft=6;rounded=0;strokeColor=#788AA3;fontColor=#FFFFFF;" parent="C-vyLk0tnHw3VtMMgP7b-27" vertex="1">
          <mxGeometry x="30" width="179" height="30" as="geometry">
            <mxRectangle width="179" height="30" as="alternateBounds" />
          </mxGeometry>
        </mxCell>
        <mxCell id="iZ6kkm9o-R-Be4P0EqjR-53" style="shape=partialRectangle;collapsible=0;dropTarget=0;pointerEvents=0;fillColor=none;points=[[0,0.5],[1,0.5]];portConstraint=eastwest;top=0;left=0;right=0;bottom=0;rounded=0;strokeColor=#788AA3;fontColor=#FFFFFF;" parent="C-vyLk0tnHw3VtMMgP7b-23" vertex="1">
          <mxGeometry y="90" width="209" height="30" as="geometry" />
        </mxCell>
        <mxCell id="iZ6kkm9o-R-Be4P0EqjR-54" style="shape=partialRectangle;overflow=hidden;connectable=0;fillColor=none;top=0;left=0;bottom=0;right=0;rounded=0;strokeColor=#788AA3;fontColor=#FFFFFF;" parent="iZ6kkm9o-R-Be4P0EqjR-53" vertex="1">
          <mxGeometry width="30" height="30" as="geometry">
            <mxRectangle width="30" height="30" as="alternateBounds" />
          </mxGeometry>
        </mxCell>
        <mxCell id="iZ6kkm9o-R-Be4P0EqjR-55" value="email VARCHAR" style="shape=partialRectangle;overflow=hidden;connectable=0;fillColor=none;top=0;left=0;bottom=0;right=0;align=left;spacingLeft=6;rounded=0;strokeColor=#788AA3;fontColor=#FFFFFF;" parent="iZ6kkm9o-R-Be4P0EqjR-53" vertex="1">
          <mxGeometry x="30" width="179" height="30" as="geometry">
            <mxRectangle width="179" height="30" as="alternateBounds" />
          </mxGeometry>
        </mxCell>
        <mxCell id="iZ6kkm9o-R-Be4P0EqjR-56" style="shape=partialRectangle;collapsible=0;dropTarget=0;pointerEvents=0;fillColor=none;points=[[0,0.5],[1,0.5]];portConstraint=eastwest;top=0;left=0;right=0;bottom=0;rounded=0;strokeColor=#788AA3;fontColor=#FFFFFF;" parent="C-vyLk0tnHw3VtMMgP7b-23" vertex="1">
          <mxGeometry y="120" width="209" height="30" as="geometry" />
        </mxCell>
        <mxCell id="iZ6kkm9o-R-Be4P0EqjR-57" style="shape=partialRectangle;overflow=hidden;connectable=0;fillColor=none;top=0;left=0;bottom=0;right=0;rounded=0;strokeColor=#788AA3;fontColor=#FFFFFF;" parent="iZ6kkm9o-R-Be4P0EqjR-56" vertex="1">
          <mxGeometry width="30" height="30" as="geometry">
            <mxRectangle width="30" height="30" as="alternateBounds" />
          </mxGeometry>
        </mxCell>
        <mxCell id="iZ6kkm9o-R-Be4P0EqjR-58" value="password VARCHAR" style="shape=partialRectangle;overflow=hidden;connectable=0;fillColor=none;top=0;left=0;bottom=0;right=0;align=left;spacingLeft=6;rounded=0;strokeColor=#788AA3;fontColor=#FFFFFF;" parent="iZ6kkm9o-R-Be4P0EqjR-56" vertex="1">
          <mxGeometry x="30" width="179" height="30" as="geometry">
            <mxRectangle width="179" height="30" as="alternateBounds" />
          </mxGeometry>
        </mxCell>
        <mxCell id="iZ6kkm9o-R-Be4P0EqjR-14" value="reservations" style="shape=table;startSize=20;container=1;collapsible=1;childLayout=tableLayout;fixedRows=1;rowLines=0;fontStyle=1;align=center;resizeLast=1;rounded=0;fillColor=#B2C9AB;strokeColor=#788AA3;fontColor=#0C4D35;" parent="1" vertex="1">
          <mxGeometry x="422" y="360" width="201" height="180" as="geometry" />
        </mxCell>
        <mxCell id="iZ6kkm9o-R-Be4P0EqjR-15" value="" style="shape=tableRow;horizontal=0;startSize=0;swimlaneHead=0;swimlaneBody=0;fillColor=none;collapsible=0;dropTarget=0;points=[[0,0.5],[1,0.5]];portConstraint=eastwest;top=0;left=0;right=0;bottom=1;rounded=0;strokeColor=#788AA3;fontColor=#FFFFFF;" parent="iZ6kkm9o-R-Be4P0EqjR-14" vertex="1">
          <mxGeometry y="20" width="201" height="30" as="geometry" />
        </mxCell>
        <mxCell id="iZ6kkm9o-R-Be4P0EqjR-16" value="PK" style="shape=partialRectangle;connectable=0;fillColor=none;top=0;left=0;bottom=0;right=0;fontStyle=1;overflow=hidden;rounded=0;strokeColor=#788AA3;fontColor=#FFFFFF;" parent="iZ6kkm9o-R-Be4P0EqjR-15" vertex="1">
          <mxGeometry width="30" height="30" as="geometry">
            <mxRectangle width="30" height="30" as="alternateBounds" />
          </mxGeometry>
        </mxCell>
        <mxCell id="iZ6kkm9o-R-Be4P0EqjR-17" value="id" style="shape=partialRectangle;connectable=0;fillColor=none;top=0;left=0;bottom=0;right=0;align=left;spacingLeft=6;fontStyle=5;overflow=hidden;rounded=0;strokeColor=#788AA3;fontColor=#FFFFFF;" parent="iZ6kkm9o-R-Be4P0EqjR-15" vertex="1">
          <mxGeometry x="30" width="171" height="30" as="geometry">
            <mxRectangle width="171" height="30" as="alternateBounds" />
          </mxGeometry>
        </mxCell>
        <mxCell id="iZ6kkm9o-R-Be4P0EqjR-18" value="" style="shape=tableRow;horizontal=0;startSize=0;swimlaneHead=0;swimlaneBody=0;fillColor=none;collapsible=0;dropTarget=0;points=[[0,0.5],[1,0.5]];portConstraint=eastwest;top=0;left=0;right=0;bottom=0;rounded=0;strokeColor=#788AA3;fontColor=#FFFFFF;" parent="iZ6kkm9o-R-Be4P0EqjR-14" vertex="1">
          <mxGeometry y="50" width="201" height="30" as="geometry" />
        </mxCell>
        <mxCell id="iZ6kkm9o-R-Be4P0EqjR-19" value="FK" style="shape=partialRectangle;connectable=0;fillColor=none;top=0;left=0;bottom=0;right=0;editable=1;overflow=hidden;rounded=0;strokeColor=#788AA3;fontColor=#FFFFFF;" parent="iZ6kkm9o-R-Be4P0EqjR-18" vertex="1">
          <mxGeometry width="30" height="30" as="geometry">
            <mxRectangle width="30" height="30" as="alternateBounds" />
          </mxGeometry>
        </mxCell>
        <mxCell id="iZ6kkm9o-R-Be4P0EqjR-20" value="guest_id" style="shape=partialRectangle;connectable=0;fillColor=none;top=0;left=0;bottom=0;right=0;align=left;spacingLeft=6;overflow=hidden;rounded=0;strokeColor=#788AA3;fontColor=#FFFFFF;" parent="iZ6kkm9o-R-Be4P0EqjR-18" vertex="1">
          <mxGeometry x="30" width="171" height="30" as="geometry">
            <mxRectangle width="171" height="30" as="alternateBounds" />
          </mxGeometry>
        </mxCell>
        <mxCell id="iZ6kkm9o-R-Be4P0EqjR-21" value="" style="shape=tableRow;horizontal=0;startSize=0;swimlaneHead=0;swimlaneBody=0;fillColor=none;collapsible=0;dropTarget=0;points=[[0,0.5],[1,0.5]];portConstraint=eastwest;top=0;left=0;right=0;bottom=0;rounded=0;strokeColor=#788AA3;fontColor=#FFFFFF;" parent="iZ6kkm9o-R-Be4P0EqjR-14" vertex="1">
          <mxGeometry y="80" width="201" height="30" as="geometry" />
        </mxCell>
        <mxCell id="iZ6kkm9o-R-Be4P0EqjR-22" value="FK" style="shape=partialRectangle;connectable=0;fillColor=none;top=0;left=0;bottom=0;right=0;editable=1;overflow=hidden;rounded=0;strokeColor=#788AA3;fontColor=#FFFFFF;" parent="iZ6kkm9o-R-Be4P0EqjR-21" vertex="1">
          <mxGeometry width="30" height="30" as="geometry">
            <mxRectangle width="30" height="30" as="alternateBounds" />
          </mxGeometry>
        </mxCell>
        <mxCell id="iZ6kkm9o-R-Be4P0EqjR-23" value="property_id" style="shape=partialRectangle;connectable=0;fillColor=none;top=0;left=0;bottom=0;right=0;align=left;spacingLeft=6;overflow=hidden;rounded=0;strokeColor=#788AA3;fontColor=#FFFFFF;" parent="iZ6kkm9o-R-Be4P0EqjR-21" vertex="1">
          <mxGeometry x="30" width="171" height="30" as="geometry">
            <mxRectangle width="171" height="30" as="alternateBounds" />
          </mxGeometry>
        </mxCell>
        <mxCell id="iZ6kkm9o-R-Be4P0EqjR-24" value="" style="shape=tableRow;horizontal=0;startSize=0;swimlaneHead=0;swimlaneBody=0;fillColor=none;collapsible=0;dropTarget=0;points=[[0,0.5],[1,0.5]];portConstraint=eastwest;top=0;left=0;right=0;bottom=0;rounded=0;strokeColor=#788AA3;fontColor=#FFFFFF;" parent="iZ6kkm9o-R-Be4P0EqjR-14" vertex="1">
          <mxGeometry y="110" width="201" height="30" as="geometry" />
        </mxCell>
        <mxCell id="iZ6kkm9o-R-Be4P0EqjR-25" value="" style="shape=partialRectangle;connectable=0;fillColor=none;top=0;left=0;bottom=0;right=0;editable=1;overflow=hidden;rounded=0;strokeColor=#788AA3;fontColor=#FFFFFF;" parent="iZ6kkm9o-R-Be4P0EqjR-24" vertex="1">
          <mxGeometry width="30" height="30" as="geometry">
            <mxRectangle width="30" height="30" as="alternateBounds" />
          </mxGeometry>
        </mxCell>
        <mxCell id="iZ6kkm9o-R-Be4P0EqjR-26" value="start_date DATE" style="shape=partialRectangle;connectable=0;fillColor=none;top=0;left=0;bottom=0;right=0;align=left;spacingLeft=6;overflow=hidden;rounded=0;strokeColor=#788AA3;fontColor=#FFFFFF;" parent="iZ6kkm9o-R-Be4P0EqjR-24" vertex="1">
          <mxGeometry x="30" width="171" height="30" as="geometry">
            <mxRectangle width="171" height="30" as="alternateBounds" />
          </mxGeometry>
        </mxCell>
        <mxCell id="iZ6kkm9o-R-Be4P0EqjR-115" style="shape=tableRow;horizontal=0;startSize=0;swimlaneHead=0;swimlaneBody=0;fillColor=none;collapsible=0;dropTarget=0;points=[[0,0.5],[1,0.5]];portConstraint=eastwest;top=0;left=0;right=0;bottom=0;rounded=0;strokeColor=#788AA3;fontColor=#FFFFFF;" parent="iZ6kkm9o-R-Be4P0EqjR-14" vertex="1">
          <mxGeometry y="140" width="201" height="30" as="geometry" />
        </mxCell>
        <mxCell id="iZ6kkm9o-R-Be4P0EqjR-116" style="shape=partialRectangle;connectable=0;fillColor=none;top=0;left=0;bottom=0;right=0;editable=1;overflow=hidden;rounded=0;strokeColor=#788AA3;fontColor=#FFFFFF;" parent="iZ6kkm9o-R-Be4P0EqjR-115" vertex="1">
          <mxGeometry width="30" height="30" as="geometry">
            <mxRectangle width="30" height="30" as="alternateBounds" />
          </mxGeometry>
        </mxCell>
        <mxCell id="iZ6kkm9o-R-Be4P0EqjR-117" value="end_date DATE" style="shape=partialRectangle;connectable=0;fillColor=none;top=0;left=0;bottom=0;right=0;align=left;spacingLeft=6;overflow=hidden;rounded=0;strokeColor=#788AA3;fontColor=#FFFFFF;" parent="iZ6kkm9o-R-Be4P0EqjR-115" vertex="1">
          <mxGeometry x="30" width="171" height="30" as="geometry">
            <mxRectangle width="171" height="30" as="alternateBounds" />
          </mxGeometry>
        </mxCell>
        <mxCell id="iZ6kkm9o-R-Be4P0EqjR-27" value="properties" style="shape=table;startSize=25;container=1;collapsible=1;childLayout=tableLayout;fixedRows=1;rowLines=0;fontStyle=1;align=center;resizeLast=1;rounded=0;fillColor=#B2C9AB;strokeColor=#788AA3;fontColor=#0C4D35;" parent="1" vertex="1">
          <mxGeometry x="102" y="218" width="241.75" height="509.36" as="geometry" />
        </mxCell>
        <mxCell id="iZ6kkm9o-R-Be4P0EqjR-28" value="" style="shape=tableRow;horizontal=0;startSize=0;swimlaneHead=0;swimlaneBody=0;fillColor=none;collapsible=0;dropTarget=0;points=[[0,0.5],[1,0.5]];portConstraint=eastwest;top=0;left=0;right=0;bottom=1;rounded=0;strokeColor=#788AA3;fontColor=#FFFFFF;" parent="iZ6kkm9o-R-Be4P0EqjR-27" vertex="1">
          <mxGeometry y="25" width="241.75" height="30" as="geometry" />
        </mxCell>
        <mxCell id="iZ6kkm9o-R-Be4P0EqjR-29" value="PK" style="shape=partialRectangle;connectable=0;fillColor=none;top=0;left=0;bottom=0;right=0;fontStyle=1;overflow=hidden;rounded=0;strokeColor=#788AA3;fontColor=#FFFFFF;" parent="iZ6kkm9o-R-Be4P0EqjR-28" vertex="1">
          <mxGeometry width="30" height="30" as="geometry">
            <mxRectangle width="30" height="30" as="alternateBounds" />
          </mxGeometry>
        </mxCell>
        <mxCell id="iZ6kkm9o-R-Be4P0EqjR-30" value="id" style="shape=partialRectangle;connectable=0;fillColor=none;top=0;left=0;bottom=0;right=0;align=left;spacingLeft=6;fontStyle=5;overflow=hidden;rounded=0;strokeColor=#788AA3;fontColor=#FFFFFF;" parent="iZ6kkm9o-R-Be4P0EqjR-28" vertex="1">
          <mxGeometry x="30" width="211.75" height="30" as="geometry">
            <mxRectangle width="211.75" height="30" as="alternateBounds" />
          </mxGeometry>
        </mxCell>
        <mxCell id="iZ6kkm9o-R-Be4P0EqjR-89" style="shape=tableRow;horizontal=0;startSize=0;swimlaneHead=0;swimlaneBody=0;fillColor=none;collapsible=0;dropTarget=0;points=[[0,0.5],[1,0.5]];portConstraint=eastwest;top=0;left=0;right=0;bottom=0;rounded=0;strokeColor=#788AA3;fontColor=#FFFFFF;" parent="iZ6kkm9o-R-Be4P0EqjR-27" vertex="1">
          <mxGeometry y="55" width="241.75" height="30" as="geometry" />
        </mxCell>
        <mxCell id="iZ6kkm9o-R-Be4P0EqjR-90" value="FK" style="shape=partialRectangle;connectable=0;fillColor=none;top=0;left=0;bottom=0;right=0;editable=1;overflow=hidden;rounded=0;strokeColor=#788AA3;fontColor=#FFFFFF;" parent="iZ6kkm9o-R-Be4P0EqjR-89" vertex="1">
          <mxGeometry width="30" height="30" as="geometry">
            <mxRectangle width="30" height="30" as="alternateBounds" />
          </mxGeometry>
        </mxCell>
        <mxCell id="iZ6kkm9o-R-Be4P0EqjR-91" value="owner_id" style="shape=partialRectangle;connectable=0;fillColor=none;top=0;left=0;bottom=0;right=0;align=left;spacingLeft=6;overflow=hidden;rounded=0;strokeColor=#788AA3;fontColor=#FFFFFF;" parent="iZ6kkm9o-R-Be4P0EqjR-89" vertex="1">
          <mxGeometry x="30" width="211.75" height="30" as="geometry">
            <mxRectangle width="211.75" height="30" as="alternateBounds" />
          </mxGeometry>
        </mxCell>
        <mxCell id="iZ6kkm9o-R-Be4P0EqjR-31" value="" style="shape=tableRow;horizontal=0;startSize=0;swimlaneHead=0;swimlaneBody=0;fillColor=none;collapsible=0;dropTarget=0;points=[[0,0.5],[1,0.5]];portConstraint=eastwest;top=0;left=0;right=0;bottom=0;rounded=0;strokeColor=#788AA3;fontColor=#FFFFFF;" parent="iZ6kkm9o-R-Be4P0EqjR-27" vertex="1">
          <mxGeometry y="85" width="241.75" height="30" as="geometry" />
        </mxCell>
        <mxCell id="iZ6kkm9o-R-Be4P0EqjR-32" value="" style="shape=partialRectangle;connectable=0;fillColor=none;top=0;left=0;bottom=0;right=0;editable=1;overflow=hidden;rounded=0;strokeColor=#788AA3;fontColor=#FFFFFF;" parent="iZ6kkm9o-R-Be4P0EqjR-31" vertex="1">
          <mxGeometry width="30" height="30" as="geometry">
            <mxRectangle width="30" height="30" as="alternateBounds" />
          </mxGeometry>
        </mxCell>
        <mxCell id="iZ6kkm9o-R-Be4P0EqjR-33" value="title VARCHAR" style="shape=partialRectangle;connectable=0;fillColor=none;top=0;left=0;bottom=0;right=0;align=left;spacingLeft=6;overflow=hidden;rounded=0;strokeColor=#788AA3;fontColor=#FFFFFF;" parent="iZ6kkm9o-R-Be4P0EqjR-31" vertex="1">
          <mxGeometry x="30" width="211.75" height="30" as="geometry">
            <mxRectangle width="211.75" height="30" as="alternateBounds" />
          </mxGeometry>
        </mxCell>
        <mxCell id="iZ6kkm9o-R-Be4P0EqjR-154" style="shape=tableRow;horizontal=0;startSize=0;swimlaneHead=0;swimlaneBody=0;fillColor=none;collapsible=0;dropTarget=0;points=[[0,0.5],[1,0.5]];portConstraint=eastwest;top=0;left=0;right=0;bottom=0;rounded=0;strokeColor=#788AA3;fontColor=#FFFFFF;" parent="iZ6kkm9o-R-Be4P0EqjR-27" vertex="1">
          <mxGeometry y="115" width="241.75" height="29" as="geometry" />
        </mxCell>
        <mxCell id="iZ6kkm9o-R-Be4P0EqjR-155" style="shape=partialRectangle;connectable=0;fillColor=none;top=0;left=0;bottom=0;right=0;editable=1;overflow=hidden;rounded=0;strokeColor=#788AA3;fontColor=#FFFFFF;" parent="iZ6kkm9o-R-Be4P0EqjR-154" vertex="1">
          <mxGeometry width="30" height="29" as="geometry">
            <mxRectangle width="30" height="29" as="alternateBounds" />
          </mxGeometry>
        </mxCell>
        <mxCell id="iZ6kkm9o-R-Be4P0EqjR-156" value="thumbnail_photo_url VARCHAR" style="shape=partialRectangle;connectable=0;fillColor=none;top=0;left=0;bottom=0;right=0;align=left;spacingLeft=6;overflow=hidden;rounded=0;strokeColor=#788AA3;fontColor=#FFFFFF;" parent="iZ6kkm9o-R-Be4P0EqjR-154" vertex="1">
          <mxGeometry x="30" width="211.75" height="29" as="geometry">
            <mxRectangle width="211.75" height="29" as="alternateBounds" />
          </mxGeometry>
        </mxCell>
        <mxCell id="OLhAs3FMmAFrnda5y459-2" style="shape=tableRow;horizontal=0;startSize=0;swimlaneHead=0;swimlaneBody=0;fillColor=none;collapsible=0;dropTarget=0;points=[[0,0.5],[1,0.5]];portConstraint=eastwest;top=0;left=0;right=0;bottom=0;rounded=0;strokeColor=#788AA3;fontColor=#FFFFFF;" vertex="1" parent="iZ6kkm9o-R-Be4P0EqjR-27">
          <mxGeometry y="144" width="241.75" height="24" as="geometry" />
        </mxCell>
        <mxCell id="OLhAs3FMmAFrnda5y459-3" value="" style="shape=partialRectangle;connectable=0;fillColor=none;top=0;left=0;bottom=0;right=0;editable=1;overflow=hidden;rounded=0;strokeColor=#788AA3;fontColor=#FFFFFF;" vertex="1" parent="OLhAs3FMmAFrnda5y459-2">
          <mxGeometry width="30" height="24" as="geometry">
            <mxRectangle width="30" height="24" as="alternateBounds" />
          </mxGeometry>
        </mxCell>
        <mxCell id="OLhAs3FMmAFrnda5y459-4" value="cover_photo_url VARCHAR" style="shape=partialRectangle;connectable=0;fillColor=none;top=0;left=0;bottom=0;right=0;align=left;spacingLeft=6;overflow=hidden;rounded=0;strokeColor=#788AA3;fontColor=#FFFFFF;" vertex="1" parent="OLhAs3FMmAFrnda5y459-2">
          <mxGeometry x="30" width="211.75" height="24" as="geometry">
            <mxRectangle width="211.75" height="24" as="alternateBounds" />
          </mxGeometry>
        </mxCell>
        <mxCell id="iZ6kkm9o-R-Be4P0EqjR-34" value="" style="shape=tableRow;horizontal=0;startSize=0;swimlaneHead=0;swimlaneBody=0;fillColor=none;collapsible=0;dropTarget=0;points=[[0,0.5],[1,0.5]];portConstraint=eastwest;top=0;left=0;right=0;bottom=0;rounded=0;strokeColor=#788AA3;fontColor=#FFFFFF;" parent="iZ6kkm9o-R-Be4P0EqjR-27" vertex="1">
          <mxGeometry y="168" width="241.75" height="30" as="geometry" />
        </mxCell>
        <mxCell id="iZ6kkm9o-R-Be4P0EqjR-35" value="" style="shape=partialRectangle;connectable=0;fillColor=none;top=0;left=0;bottom=0;right=0;editable=1;overflow=hidden;rounded=0;strokeColor=#788AA3;fontColor=#FFFFFF;" parent="iZ6kkm9o-R-Be4P0EqjR-34" vertex="1">
          <mxGeometry width="30" height="30" as="geometry">
            <mxRectangle width="30" height="30" as="alternateBounds" />
          </mxGeometry>
        </mxCell>
        <mxCell id="iZ6kkm9o-R-Be4P0EqjR-36" value="description TEXT" style="shape=partialRectangle;connectable=0;fillColor=none;top=0;left=0;bottom=0;right=0;align=left;spacingLeft=6;overflow=hidden;rounded=0;strokeColor=#788AA3;fontColor=#FFFFFF;" parent="iZ6kkm9o-R-Be4P0EqjR-34" vertex="1">
          <mxGeometry x="30" width="211.75" height="30" as="geometry">
            <mxRectangle width="211.75" height="30" as="alternateBounds" />
          </mxGeometry>
        </mxCell>
        <mxCell id="iZ6kkm9o-R-Be4P0EqjR-37" value="" style="shape=tableRow;horizontal=0;startSize=0;swimlaneHead=0;swimlaneBody=0;fillColor=none;collapsible=0;dropTarget=0;points=[[0,0.5],[1,0.5]];portConstraint=eastwest;top=0;left=0;right=0;bottom=0;rounded=0;strokeColor=#788AA3;fontColor=#FFFFFF;" parent="iZ6kkm9o-R-Be4P0EqjR-27" vertex="1">
          <mxGeometry y="198" width="241.75" height="30" as="geometry" />
        </mxCell>
        <mxCell id="iZ6kkm9o-R-Be4P0EqjR-38" value="" style="shape=partialRectangle;connectable=0;fillColor=none;top=0;left=0;bottom=0;right=0;editable=1;overflow=hidden;rounded=0;strokeColor=#788AA3;fontColor=#FFFFFF;" parent="iZ6kkm9o-R-Be4P0EqjR-37" vertex="1">
          <mxGeometry width="30" height="30" as="geometry">
            <mxRectangle width="30" height="30" as="alternateBounds" />
          </mxGeometry>
        </mxCell>
        <mxCell id="iZ6kkm9o-R-Be4P0EqjR-39" value="cost_per_night INTEGER" style="shape=partialRectangle;connectable=0;fillColor=none;top=0;left=0;bottom=0;right=0;align=left;spacingLeft=6;overflow=hidden;rounded=0;strokeColor=#788AA3;fontColor=#FFFFFF;" parent="iZ6kkm9o-R-Be4P0EqjR-37" vertex="1">
          <mxGeometry x="30" width="211.75" height="30" as="geometry">
            <mxRectangle width="211.75" height="30" as="alternateBounds" />
          </mxGeometry>
        </mxCell>
        <mxCell id="iZ6kkm9o-R-Be4P0EqjR-62" style="shape=tableRow;horizontal=0;startSize=0;swimlaneHead=0;swimlaneBody=0;fillColor=none;collapsible=0;dropTarget=0;points=[[0,0.5],[1,0.5]];portConstraint=eastwest;top=0;left=0;right=0;bottom=0;rounded=0;strokeColor=#788AA3;fontColor=#FFFFFF;" parent="iZ6kkm9o-R-Be4P0EqjR-27" vertex="1">
          <mxGeometry y="228" width="241.75" height="30" as="geometry" />
        </mxCell>
        <mxCell id="iZ6kkm9o-R-Be4P0EqjR-63" style="shape=partialRectangle;connectable=0;fillColor=none;top=0;left=0;bottom=0;right=0;editable=1;overflow=hidden;rounded=0;strokeColor=#788AA3;fontColor=#FFFFFF;" parent="iZ6kkm9o-R-Be4P0EqjR-62" vertex="1">
          <mxGeometry width="30" height="30" as="geometry">
            <mxRectangle width="30" height="30" as="alternateBounds" />
          </mxGeometry>
        </mxCell>
        <mxCell id="iZ6kkm9o-R-Be4P0EqjR-64" value="parking_spaces INTEGER" style="shape=partialRectangle;connectable=0;fillColor=none;top=0;left=0;bottom=0;right=0;align=left;spacingLeft=6;overflow=hidden;rounded=0;strokeColor=#788AA3;fontColor=#FFFFFF;" parent="iZ6kkm9o-R-Be4P0EqjR-62" vertex="1">
          <mxGeometry x="30" width="211.75" height="30" as="geometry">
            <mxRectangle width="211.75" height="30" as="alternateBounds" />
          </mxGeometry>
        </mxCell>
        <mxCell id="iZ6kkm9o-R-Be4P0EqjR-65" style="shape=tableRow;horizontal=0;startSize=0;swimlaneHead=0;swimlaneBody=0;fillColor=none;collapsible=0;dropTarget=0;points=[[0,0.5],[1,0.5]];portConstraint=eastwest;top=0;left=0;right=0;bottom=0;rounded=0;strokeColor=#788AA3;fontColor=#FFFFFF;" parent="iZ6kkm9o-R-Be4P0EqjR-27" vertex="1">
          <mxGeometry y="258" width="241.75" height="30" as="geometry" />
        </mxCell>
        <mxCell id="iZ6kkm9o-R-Be4P0EqjR-66" style="shape=partialRectangle;connectable=0;fillColor=none;top=0;left=0;bottom=0;right=0;editable=1;overflow=hidden;rounded=0;strokeColor=#788AA3;fontColor=#FFFFFF;" parent="iZ6kkm9o-R-Be4P0EqjR-65" vertex="1">
          <mxGeometry width="30" height="30" as="geometry">
            <mxRectangle width="30" height="30" as="alternateBounds" />
          </mxGeometry>
        </mxCell>
        <mxCell id="iZ6kkm9o-R-Be4P0EqjR-67" value="number_of_bathrooms INTEGER" style="shape=partialRectangle;connectable=0;fillColor=none;top=0;left=0;bottom=0;right=0;align=left;spacingLeft=6;overflow=hidden;rounded=0;strokeColor=#788AA3;fontColor=#FFFFFF;" parent="iZ6kkm9o-R-Be4P0EqjR-65" vertex="1">
          <mxGeometry x="30" width="211.75" height="30" as="geometry">
            <mxRectangle width="211.75" height="30" as="alternateBounds" />
          </mxGeometry>
        </mxCell>
        <mxCell id="iZ6kkm9o-R-Be4P0EqjR-68" style="shape=tableRow;horizontal=0;startSize=0;swimlaneHead=0;swimlaneBody=0;fillColor=none;collapsible=0;dropTarget=0;points=[[0,0.5],[1,0.5]];portConstraint=eastwest;top=0;left=0;right=0;bottom=0;rounded=0;strokeColor=#788AA3;fontColor=#FFFFFF;" parent="iZ6kkm9o-R-Be4P0EqjR-27" vertex="1">
          <mxGeometry y="288" width="241.75" height="30" as="geometry" />
        </mxCell>
        <mxCell id="iZ6kkm9o-R-Be4P0EqjR-69" style="shape=partialRectangle;connectable=0;fillColor=none;top=0;left=0;bottom=0;right=0;editable=1;overflow=hidden;rounded=0;strokeColor=#788AA3;fontColor=#FFFFFF;" parent="iZ6kkm9o-R-Be4P0EqjR-68" vertex="1">
          <mxGeometry width="30" height="30" as="geometry">
            <mxRectangle width="30" height="30" as="alternateBounds" />
          </mxGeometry>
        </mxCell>
        <mxCell id="iZ6kkm9o-R-Be4P0EqjR-70" value="number_of_bedrooms INTEGER" style="shape=partialRectangle;connectable=0;fillColor=none;top=0;left=0;bottom=0;right=0;align=left;spacingLeft=6;overflow=hidden;rounded=0;strokeColor=#788AA3;fontColor=#FFFFFF;" parent="iZ6kkm9o-R-Be4P0EqjR-68" vertex="1">
          <mxGeometry x="30" width="211.75" height="30" as="geometry">
            <mxRectangle width="211.75" height="30" as="alternateBounds" />
          </mxGeometry>
        </mxCell>
        <mxCell id="iZ6kkm9o-R-Be4P0EqjR-92" style="shape=tableRow;horizontal=0;startSize=0;swimlaneHead=0;swimlaneBody=0;fillColor=none;collapsible=0;dropTarget=0;points=[[0,0.5],[1,0.5]];portConstraint=eastwest;top=0;left=0;right=0;bottom=0;rounded=0;strokeColor=#788AA3;fontColor=#FFFFFF;" parent="iZ6kkm9o-R-Be4P0EqjR-27" vertex="1">
          <mxGeometry y="318" width="241.75" height="30" as="geometry" />
        </mxCell>
        <mxCell id="iZ6kkm9o-R-Be4P0EqjR-93" style="shape=partialRectangle;connectable=0;fillColor=none;top=0;left=0;bottom=0;right=0;editable=1;overflow=hidden;rounded=0;strokeColor=#788AA3;fontColor=#FFFFFF;" parent="iZ6kkm9o-R-Be4P0EqjR-92" vertex="1">
          <mxGeometry width="30" height="30" as="geometry">
            <mxRectangle width="30" height="30" as="alternateBounds" />
          </mxGeometry>
        </mxCell>
        <mxCell id="iZ6kkm9o-R-Be4P0EqjR-94" value="country VARCHAR" style="shape=partialRectangle;connectable=0;fillColor=none;top=0;left=0;bottom=0;right=0;align=left;spacingLeft=6;overflow=hidden;rounded=0;strokeColor=#788AA3;fontColor=#FFFFFF;" parent="iZ6kkm9o-R-Be4P0EqjR-92" vertex="1">
          <mxGeometry x="30" width="211.75" height="30" as="geometry">
            <mxRectangle width="211.75" height="30" as="alternateBounds" />
          </mxGeometry>
        </mxCell>
        <mxCell id="iZ6kkm9o-R-Be4P0EqjR-95" style="shape=tableRow;horizontal=0;startSize=0;swimlaneHead=0;swimlaneBody=0;fillColor=none;collapsible=0;dropTarget=0;points=[[0,0.5],[1,0.5]];portConstraint=eastwest;top=0;left=0;right=0;bottom=0;rounded=0;strokeColor=#788AA3;fontColor=#FFFFFF;" parent="iZ6kkm9o-R-Be4P0EqjR-27" vertex="1">
          <mxGeometry y="348" width="241.75" height="26" as="geometry" />
        </mxCell>
        <mxCell id="iZ6kkm9o-R-Be4P0EqjR-96" style="shape=partialRectangle;connectable=0;fillColor=none;top=0;left=0;bottom=0;right=0;editable=1;overflow=hidden;rounded=0;strokeColor=#788AA3;fontColor=#FFFFFF;" parent="iZ6kkm9o-R-Be4P0EqjR-95" vertex="1">
          <mxGeometry width="30" height="26" as="geometry">
            <mxRectangle width="30" height="26" as="alternateBounds" />
          </mxGeometry>
        </mxCell>
        <mxCell id="iZ6kkm9o-R-Be4P0EqjR-97" value="street VARCHAR" style="shape=partialRectangle;connectable=0;fillColor=none;top=0;left=0;bottom=0;right=0;align=left;spacingLeft=6;overflow=hidden;rounded=0;strokeColor=#788AA3;fontColor=#FFFFFF;" parent="iZ6kkm9o-R-Be4P0EqjR-95" vertex="1">
          <mxGeometry x="30" width="211.75" height="26" as="geometry">
            <mxRectangle width="211.75" height="26" as="alternateBounds" />
          </mxGeometry>
        </mxCell>
        <mxCell id="iZ6kkm9o-R-Be4P0EqjR-145" style="shape=tableRow;horizontal=0;startSize=0;swimlaneHead=0;swimlaneBody=0;fillColor=none;collapsible=0;dropTarget=0;points=[[0,0.5],[1,0.5]];portConstraint=eastwest;top=0;left=0;right=0;bottom=0;rounded=0;strokeColor=#788AA3;fontColor=#FFFFFF;" parent="iZ6kkm9o-R-Be4P0EqjR-27" vertex="1">
          <mxGeometry y="374" width="241.75" height="28" as="geometry" />
        </mxCell>
        <mxCell id="iZ6kkm9o-R-Be4P0EqjR-146" style="shape=partialRectangle;connectable=0;fillColor=none;top=0;left=0;bottom=0;right=0;editable=1;overflow=hidden;rounded=0;strokeColor=#788AA3;fontColor=#FFFFFF;" parent="iZ6kkm9o-R-Be4P0EqjR-145" vertex="1">
          <mxGeometry width="30" height="28" as="geometry">
            <mxRectangle width="30" height="28" as="alternateBounds" />
          </mxGeometry>
        </mxCell>
        <mxCell id="iZ6kkm9o-R-Be4P0EqjR-147" value="city VARCHAR" style="shape=partialRectangle;connectable=0;fillColor=none;top=0;left=0;bottom=0;right=0;align=left;spacingLeft=6;overflow=hidden;rounded=0;strokeColor=#788AA3;fontColor=#FFFFFF;" parent="iZ6kkm9o-R-Be4P0EqjR-145" vertex="1">
          <mxGeometry x="30" width="211.75" height="28" as="geometry">
            <mxRectangle width="211.75" height="28" as="alternateBounds" />
          </mxGeometry>
        </mxCell>
        <mxCell id="iZ6kkm9o-R-Be4P0EqjR-148" style="shape=tableRow;horizontal=0;startSize=0;swimlaneHead=0;swimlaneBody=0;fillColor=none;collapsible=0;dropTarget=0;points=[[0,0.5],[1,0.5]];portConstraint=eastwest;top=0;left=0;right=0;bottom=0;rounded=0;strokeColor=#788AA3;fontColor=#FFFFFF;" parent="iZ6kkm9o-R-Be4P0EqjR-27" vertex="1">
          <mxGeometry y="402" width="241.75" height="32" as="geometry" />
        </mxCell>
        <mxCell id="iZ6kkm9o-R-Be4P0EqjR-149" style="shape=partialRectangle;connectable=0;fillColor=none;top=0;left=0;bottom=0;right=0;editable=1;overflow=hidden;rounded=0;strokeColor=#788AA3;fontColor=#FFFFFF;" parent="iZ6kkm9o-R-Be4P0EqjR-148" vertex="1">
          <mxGeometry width="30" height="32" as="geometry">
            <mxRectangle width="30" height="32" as="alternateBounds" />
          </mxGeometry>
        </mxCell>
        <mxCell id="iZ6kkm9o-R-Be4P0EqjR-150" value="province VARCHAR" style="shape=partialRectangle;connectable=0;fillColor=none;top=0;left=0;bottom=0;right=0;align=left;spacingLeft=6;overflow=hidden;rounded=0;strokeColor=#788AA3;fontColor=#FFFFFF;" parent="iZ6kkm9o-R-Be4P0EqjR-148" vertex="1">
          <mxGeometry x="30" width="211.75" height="32" as="geometry">
            <mxRectangle width="211.75" height="32" as="alternateBounds" />
          </mxGeometry>
        </mxCell>
        <mxCell id="iZ6kkm9o-R-Be4P0EqjR-151" style="shape=tableRow;horizontal=0;startSize=0;swimlaneHead=0;swimlaneBody=0;fillColor=none;collapsible=0;dropTarget=0;points=[[0,0.5],[1,0.5]];portConstraint=eastwest;top=0;left=0;right=0;bottom=0;rounded=0;strokeColor=#788AA3;fontColor=#FFFFFF;" parent="iZ6kkm9o-R-Be4P0EqjR-27" vertex="1">
          <mxGeometry y="434" width="241.75" height="20" as="geometry" />
        </mxCell>
        <mxCell id="iZ6kkm9o-R-Be4P0EqjR-152" style="shape=partialRectangle;connectable=0;fillColor=none;top=0;left=0;bottom=0;right=0;editable=1;overflow=hidden;rounded=0;strokeColor=#788AA3;fontColor=#FFFFFF;" parent="iZ6kkm9o-R-Be4P0EqjR-151" vertex="1">
          <mxGeometry width="30" height="20" as="geometry">
            <mxRectangle width="30" height="20" as="alternateBounds" />
          </mxGeometry>
        </mxCell>
        <mxCell id="iZ6kkm9o-R-Be4P0EqjR-153" value="post_code VARCHAR" style="shape=partialRectangle;connectable=0;fillColor=none;top=0;left=0;bottom=0;right=0;align=left;spacingLeft=6;overflow=hidden;rounded=0;strokeColor=#788AA3;fontColor=#FFFFFF;" parent="iZ6kkm9o-R-Be4P0EqjR-151" vertex="1">
          <mxGeometry x="30" width="211.75" height="20" as="geometry">
            <mxRectangle width="211.75" height="20" as="alternateBounds" />
          </mxGeometry>
        </mxCell>
        <mxCell id="iZ6kkm9o-R-Be4P0EqjR-86" style="shape=tableRow;horizontal=0;startSize=0;swimlaneHead=0;swimlaneBody=0;fillColor=none;collapsible=0;dropTarget=0;points=[[0,0.5],[1,0.5]];portConstraint=eastwest;top=0;left=0;right=0;bottom=0;rounded=0;strokeColor=#788AA3;fontColor=#FFFFFF;" parent="iZ6kkm9o-R-Be4P0EqjR-27" vertex="1">
          <mxGeometry y="454" width="241.75" height="30" as="geometry" />
        </mxCell>
        <mxCell id="iZ6kkm9o-R-Be4P0EqjR-87" style="shape=partialRectangle;connectable=0;fillColor=none;top=0;left=0;bottom=0;right=0;editable=1;overflow=hidden;rounded=0;strokeColor=#788AA3;fontColor=#FFFFFF;" parent="iZ6kkm9o-R-Be4P0EqjR-86" vertex="1">
          <mxGeometry width="30" height="30" as="geometry">
            <mxRectangle width="30" height="30" as="alternateBounds" />
          </mxGeometry>
        </mxCell>
        <mxCell id="iZ6kkm9o-R-Be4P0EqjR-88" value="active BOOLEAN" style="shape=partialRectangle;connectable=0;fillColor=none;top=0;left=0;bottom=0;right=0;align=left;spacingLeft=6;overflow=hidden;rounded=0;strokeColor=#788AA3;fontColor=#FFFFFF;" parent="iZ6kkm9o-R-Be4P0EqjR-86" vertex="1">
          <mxGeometry x="30" width="211.75" height="30" as="geometry">
            <mxRectangle width="211.75" height="30" as="alternateBounds" />
          </mxGeometry>
        </mxCell>
        <mxCell id="OLhAs3FMmAFrnda5y459-5" style="shape=tableRow;horizontal=0;startSize=0;swimlaneHead=0;swimlaneBody=0;fillColor=none;collapsible=0;dropTarget=0;points=[[0,0.5],[1,0.5]];portConstraint=eastwest;top=0;left=0;right=0;bottom=0;rounded=0;strokeColor=#788AA3;fontColor=#FFFFFF;" vertex="1" parent="iZ6kkm9o-R-Be4P0EqjR-27">
          <mxGeometry y="484" width="241.75" height="20" as="geometry" />
        </mxCell>
        <mxCell id="OLhAs3FMmAFrnda5y459-6" style="shape=partialRectangle;connectable=0;fillColor=none;top=0;left=0;bottom=0;right=0;editable=1;overflow=hidden;rounded=0;strokeColor=#788AA3;fontColor=#FFFFFF;" vertex="1" parent="OLhAs3FMmAFrnda5y459-5">
          <mxGeometry width="30" height="20" as="geometry">
            <mxRectangle width="30" height="20" as="alternateBounds" />
          </mxGeometry>
        </mxCell>
        <mxCell id="OLhAs3FMmAFrnda5y459-7" style="shape=partialRectangle;connectable=0;fillColor=none;top=0;left=0;bottom=0;right=0;align=left;spacingLeft=6;overflow=hidden;rounded=0;strokeColor=#788AA3;fontColor=#FFFFFF;" vertex="1" parent="OLhAs3FMmAFrnda5y459-5">
          <mxGeometry x="30" width="211.75" height="20" as="geometry">
            <mxRectangle width="211.75" height="20" as="alternateBounds" />
          </mxGeometry>
        </mxCell>
        <mxCell id="iZ6kkm9o-R-Be4P0EqjR-40" value="property_reviews" style="shape=table;startSize=30;container=1;collapsible=1;childLayout=tableLayout;fixedRows=1;rowLines=0;fontStyle=1;align=center;resizeLast=1;rounded=0;fillColor=#B2C9AB;strokeColor=#788AA3;fontColor=#0C4D35;" parent="1" vertex="1">
          <mxGeometry x="699" y="500" width="180" height="210" as="geometry" />
        </mxCell>
        <mxCell id="iZ6kkm9o-R-Be4P0EqjR-41" value="" style="shape=tableRow;horizontal=0;startSize=0;swimlaneHead=0;swimlaneBody=0;fillColor=none;collapsible=0;dropTarget=0;points=[[0,0.5],[1,0.5]];portConstraint=eastwest;top=0;left=0;right=0;bottom=1;rounded=0;strokeColor=#788AA3;fontColor=#46495D;" parent="iZ6kkm9o-R-Be4P0EqjR-40" vertex="1">
          <mxGeometry y="30" width="180" height="30" as="geometry" />
        </mxCell>
        <mxCell id="iZ6kkm9o-R-Be4P0EqjR-42" value="PK" style="shape=partialRectangle;connectable=0;fillColor=none;top=0;left=0;bottom=0;right=0;fontStyle=1;overflow=hidden;rounded=0;strokeColor=#788AA3;fontColor=#FFFFFF;" parent="iZ6kkm9o-R-Be4P0EqjR-41" vertex="1">
          <mxGeometry width="30" height="30" as="geometry">
            <mxRectangle width="30" height="30" as="alternateBounds" />
          </mxGeometry>
        </mxCell>
        <mxCell id="iZ6kkm9o-R-Be4P0EqjR-43" value="id" style="shape=partialRectangle;connectable=0;fillColor=none;top=0;left=0;bottom=0;right=0;align=left;spacingLeft=6;fontStyle=5;overflow=hidden;rounded=0;strokeColor=#788AA3;fontColor=#FFFFFF;" parent="iZ6kkm9o-R-Be4P0EqjR-41" vertex="1">
          <mxGeometry x="30" width="150" height="30" as="geometry">
            <mxRectangle width="150" height="30" as="alternateBounds" />
          </mxGeometry>
        </mxCell>
        <mxCell id="iZ6kkm9o-R-Be4P0EqjR-44" value="" style="shape=tableRow;horizontal=0;startSize=0;swimlaneHead=0;swimlaneBody=0;fillColor=none;collapsible=0;dropTarget=0;points=[[0,0.5],[1,0.5]];portConstraint=eastwest;top=0;left=0;right=0;bottom=0;rounded=0;strokeColor=#788AA3;fontColor=#46495D;" parent="iZ6kkm9o-R-Be4P0EqjR-40" vertex="1">
          <mxGeometry y="60" width="180" height="30" as="geometry" />
        </mxCell>
        <mxCell id="iZ6kkm9o-R-Be4P0EqjR-45" value="" style="shape=partialRectangle;connectable=0;fillColor=none;top=0;left=0;bottom=0;right=0;editable=1;overflow=hidden;rounded=0;strokeColor=#788AA3;fontColor=#FFFFFF;" parent="iZ6kkm9o-R-Be4P0EqjR-44" vertex="1">
          <mxGeometry width="30" height="30" as="geometry">
            <mxRectangle width="30" height="30" as="alternateBounds" />
          </mxGeometry>
        </mxCell>
        <mxCell id="iZ6kkm9o-R-Be4P0EqjR-46" value="message TEXT" style="shape=partialRectangle;connectable=0;fillColor=none;top=0;left=0;bottom=0;right=0;align=left;spacingLeft=6;overflow=hidden;rounded=0;strokeColor=#788AA3;fontColor=#FFFFFF;" parent="iZ6kkm9o-R-Be4P0EqjR-44" vertex="1">
          <mxGeometry x="30" width="150" height="30" as="geometry">
            <mxRectangle width="150" height="30" as="alternateBounds" />
          </mxGeometry>
        </mxCell>
        <mxCell id="iZ6kkm9o-R-Be4P0EqjR-47" value="" style="shape=tableRow;horizontal=0;startSize=0;swimlaneHead=0;swimlaneBody=0;fillColor=none;collapsible=0;dropTarget=0;points=[[0,0.5],[1,0.5]];portConstraint=eastwest;top=0;left=0;right=0;bottom=0;rounded=0;strokeColor=#788AA3;fontColor=#46495D;" parent="iZ6kkm9o-R-Be4P0EqjR-40" vertex="1">
          <mxGeometry y="90" width="180" height="30" as="geometry" />
        </mxCell>
        <mxCell id="iZ6kkm9o-R-Be4P0EqjR-48" value="" style="shape=partialRectangle;connectable=0;fillColor=none;top=0;left=0;bottom=0;right=0;editable=1;overflow=hidden;rounded=0;strokeColor=#788AA3;fontColor=#FFFFFF;" parent="iZ6kkm9o-R-Be4P0EqjR-47" vertex="1">
          <mxGeometry width="30" height="30" as="geometry">
            <mxRectangle width="30" height="30" as="alternateBounds" />
          </mxGeometry>
        </mxCell>
        <mxCell id="iZ6kkm9o-R-Be4P0EqjR-49" value="rating SMALLINT" style="shape=partialRectangle;connectable=0;fillColor=none;top=0;left=0;bottom=0;right=0;align=left;spacingLeft=6;overflow=hidden;rounded=0;strokeColor=#788AA3;fontColor=#FFFFFF;" parent="iZ6kkm9o-R-Be4P0EqjR-47" vertex="1">
          <mxGeometry x="30" width="150" height="30" as="geometry">
            <mxRectangle width="150" height="30" as="alternateBounds" />
          </mxGeometry>
        </mxCell>
        <mxCell id="iZ6kkm9o-R-Be4P0EqjR-50" value="" style="shape=tableRow;horizontal=0;startSize=0;swimlaneHead=0;swimlaneBody=0;fillColor=none;collapsible=0;dropTarget=0;points=[[0,0.5],[1,0.5]];portConstraint=eastwest;top=0;left=0;right=0;bottom=0;rounded=0;strokeColor=#788AA3;fontColor=#46495D;" parent="iZ6kkm9o-R-Be4P0EqjR-40" vertex="1">
          <mxGeometry y="120" width="180" height="30" as="geometry" />
        </mxCell>
        <mxCell id="iZ6kkm9o-R-Be4P0EqjR-51" value="FK" style="shape=partialRectangle;connectable=0;fillColor=none;top=0;left=0;bottom=0;right=0;editable=1;overflow=hidden;rounded=0;strokeColor=#788AA3;fontColor=#FFFFFF;" parent="iZ6kkm9o-R-Be4P0EqjR-50" vertex="1">
          <mxGeometry width="30" height="30" as="geometry">
            <mxRectangle width="30" height="30" as="alternateBounds" />
          </mxGeometry>
        </mxCell>
        <mxCell id="iZ6kkm9o-R-Be4P0EqjR-52" value="guest_id" style="shape=partialRectangle;connectable=0;fillColor=none;top=0;left=0;bottom=0;right=0;align=left;spacingLeft=6;overflow=hidden;rounded=0;strokeColor=#788AA3;fontColor=#FFFFFF;" parent="iZ6kkm9o-R-Be4P0EqjR-50" vertex="1">
          <mxGeometry x="30" width="150" height="30" as="geometry">
            <mxRectangle width="150" height="30" as="alternateBounds" />
          </mxGeometry>
        </mxCell>
        <mxCell id="iZ6kkm9o-R-Be4P0EqjR-121" style="shape=tableRow;horizontal=0;startSize=0;swimlaneHead=0;swimlaneBody=0;fillColor=none;collapsible=0;dropTarget=0;points=[[0,0.5],[1,0.5]];portConstraint=eastwest;top=0;left=0;right=0;bottom=0;rounded=0;strokeColor=#788AA3;fontColor=#46495D;" parent="iZ6kkm9o-R-Be4P0EqjR-40" vertex="1">
          <mxGeometry y="150" width="180" height="30" as="geometry" />
        </mxCell>
        <mxCell id="iZ6kkm9o-R-Be4P0EqjR-122" value="FK" style="shape=partialRectangle;connectable=0;fillColor=none;top=0;left=0;bottom=0;right=0;editable=1;overflow=hidden;rounded=0;strokeColor=#788AA3;fontColor=#FFFFFF;" parent="iZ6kkm9o-R-Be4P0EqjR-121" vertex="1">
          <mxGeometry width="30" height="30" as="geometry">
            <mxRectangle width="30" height="30" as="alternateBounds" />
          </mxGeometry>
        </mxCell>
        <mxCell id="iZ6kkm9o-R-Be4P0EqjR-123" value="reservation_id" style="shape=partialRectangle;connectable=0;fillColor=none;top=0;left=0;bottom=0;right=0;align=left;spacingLeft=6;overflow=hidden;rounded=0;strokeColor=#788AA3;fontColor=#FFFFFF;" parent="iZ6kkm9o-R-Be4P0EqjR-121" vertex="1">
          <mxGeometry x="30" width="150" height="30" as="geometry">
            <mxRectangle width="150" height="30" as="alternateBounds" />
          </mxGeometry>
        </mxCell>
        <mxCell id="iZ6kkm9o-R-Be4P0EqjR-124" style="shape=tableRow;horizontal=0;startSize=0;swimlaneHead=0;swimlaneBody=0;fillColor=none;collapsible=0;dropTarget=0;points=[[0,0.5],[1,0.5]];portConstraint=eastwest;top=0;left=0;right=0;bottom=0;rounded=0;strokeColor=#788AA3;fontColor=#46495D;" parent="iZ6kkm9o-R-Be4P0EqjR-40" vertex="1">
          <mxGeometry y="180" width="180" height="30" as="geometry" />
        </mxCell>
        <mxCell id="iZ6kkm9o-R-Be4P0EqjR-125" value="FK" style="shape=partialRectangle;connectable=0;fillColor=none;top=0;left=0;bottom=0;right=0;editable=1;overflow=hidden;rounded=0;strokeColor=#788AA3;fontColor=#FFFFFF;" parent="iZ6kkm9o-R-Be4P0EqjR-124" vertex="1">
          <mxGeometry width="30" height="30" as="geometry">
            <mxRectangle width="30" height="30" as="alternateBounds" />
          </mxGeometry>
        </mxCell>
        <mxCell id="iZ6kkm9o-R-Be4P0EqjR-126" value="property_id" style="shape=partialRectangle;connectable=0;fillColor=none;top=0;left=0;bottom=0;right=0;align=left;spacingLeft=6;overflow=hidden;rounded=0;strokeColor=#788AA3;fontColor=#FFFFFF;" parent="iZ6kkm9o-R-Be4P0EqjR-124" vertex="1">
          <mxGeometry x="30" width="150" height="30" as="geometry">
            <mxRectangle width="150" height="30" as="alternateBounds" />
          </mxGeometry>
        </mxCell>
        <mxCell id="iZ6kkm9o-R-Be4P0EqjR-111" value="" style="edgeStyle=elbowEdgeStyle;fontSize=12;html=1;endArrow=ERoneToMany;startArrow=ERmandOne;rounded=0;fontColor=#46495D;startSize=14;endSize=14;strokeColor=#788AA3;fillColor=#B2C9AB;entryX=0;entryY=0.5;entryDx=0;entryDy=0;exitX=0;exitY=0.5;exitDx=0;exitDy=0;" parent="1" source="C-vyLk0tnHw3VtMMgP7b-24" target="iZ6kkm9o-R-Be4P0EqjR-18" edge="1">
          <mxGeometry width="100" height="100" relative="1" as="geometry">
            <mxPoint x="417" y="165" as="sourcePoint" />
            <mxPoint x="395" y="198" as="targetPoint" />
            <Array as="points">
              <mxPoint x="389" y="306" />
            </Array>
          </mxGeometry>
        </mxCell>
        <mxCell id="iZ6kkm9o-R-Be4P0EqjR-118" value="" style="edgeStyle=elbowEdgeStyle;fontSize=12;html=1;endArrow=ERoneToMany;startArrow=ERmandOne;rounded=0;fontColor=#46495D;startSize=14;endSize=14;strokeColor=#788AA3;fillColor=#B2C9AB;exitX=0;exitY=0.5;exitDx=0;exitDy=0;entryX=0;entryY=0.5;entryDx=0;entryDy=0;" parent="1" source="C-vyLk0tnHw3VtMMgP7b-24" target="iZ6kkm9o-R-Be4P0EqjR-89" edge="1">
          <mxGeometry width="100" height="100" relative="1" as="geometry">
            <mxPoint x="402.5" y="169.99999999999994" as="sourcePoint" />
            <mxPoint x="81" y="288" as="targetPoint" />
            <Array as="points">
              <mxPoint x="61" y="246" />
              <mxPoint x="93" y="257" />
            </Array>
          </mxGeometry>
        </mxCell>
        <mxCell id="iZ6kkm9o-R-Be4P0EqjR-119" value="" style="edgeStyle=elbowEdgeStyle;fontSize=12;html=1;endArrow=ERoneToMany;startArrow=ERmandOne;rounded=0;fontColor=#46495D;startSize=14;endSize=14;strokeColor=#788AA3;fillColor=#B2C9AB;entryX=0;entryY=0.5;entryDx=0;entryDy=0;exitX=1;exitY=0.5;exitDx=0;exitDy=0;" parent="1" source="iZ6kkm9o-R-Be4P0EqjR-28" target="iZ6kkm9o-R-Be4P0EqjR-21" edge="1">
          <mxGeometry width="100" height="100" relative="1" as="geometry">
            <mxPoint x="340" y="443" as="sourcePoint" />
            <mxPoint x="399" y="474" as="targetPoint" />
            <Array as="points">
              <mxPoint x="369" y="361" />
            </Array>
          </mxGeometry>
        </mxCell>
        <mxCell id="iZ6kkm9o-R-Be4P0EqjR-127" value="" style="edgeStyle=elbowEdgeStyle;fontSize=12;html=1;endArrow=ERoneToMany;startArrow=ERmandOne;rounded=0;fontColor=#46495D;startSize=14;endSize=14;strokeColor=#788AA3;fillColor=#B2C9AB;entryX=0;entryY=0.5;entryDx=0;entryDy=0;exitX=1;exitY=0.5;exitDx=0;exitDy=0;" parent="1" source="C-vyLk0tnHw3VtMMgP7b-24" target="iZ6kkm9o-R-Be4P0EqjR-50" edge="1">
          <mxGeometry width="100" height="100" relative="1" as="geometry">
            <mxPoint x="593" y="556" as="sourcePoint" />
            <mxPoint x="652" y="587" as="targetPoint" />
            <Array as="points">
              <mxPoint x="676" y="417" />
            </Array>
          </mxGeometry>
        </mxCell>
        <mxCell id="iZ6kkm9o-R-Be4P0EqjR-128" value="" style="edgeStyle=elbowEdgeStyle;fontSize=12;html=1;endArrow=ERoneToMany;startArrow=ERmandOne;rounded=0;fontColor=#46495D;startSize=14;endSize=14;strokeColor=#788AA3;fillColor=#B2C9AB;entryX=0;entryY=0.5;entryDx=0;entryDy=0;" parent="1" source="iZ6kkm9o-R-Be4P0EqjR-15" target="iZ6kkm9o-R-Be4P0EqjR-121" edge="1">
          <mxGeometry width="100" height="100" relative="1" as="geometry">
            <mxPoint x="610" y="201" as="sourcePoint" />
            <mxPoint x="683" y="484" as="targetPoint" />
            <Array as="points">
              <mxPoint x="646" y="532" />
            </Array>
          </mxGeometry>
        </mxCell>
        <mxCell id="iZ6kkm9o-R-Be4P0EqjR-129" value="" style="edgeStyle=elbowEdgeStyle;fontSize=12;html=1;endArrow=ERoneToMany;startArrow=ERmandOne;rounded=0;fontColor=#46495D;startSize=14;endSize=14;strokeColor=#788AA3;fillColor=#B2C9AB;entryX=0;entryY=0.5;entryDx=0;entryDy=0;" parent="1" source="iZ6kkm9o-R-Be4P0EqjR-28" target="iZ6kkm9o-R-Be4P0EqjR-124" edge="1">
          <mxGeometry width="100" height="100" relative="1" as="geometry">
            <mxPoint x="612" y="415" as="sourcePoint" />
            <mxPoint x="693" y="543" as="targetPoint" />
            <Array as="points">
              <mxPoint x="369" y="476" />
            </Array>
          </mxGeometry>
        </mxCell>
        <mxCell id="iZ6kkm9o-R-Be4P0EqjR-143" value="" style="shape=partialRectangle;whiteSpace=wrap;html=1;bottom=0;right=0;fillColor=none;fontSize=16;fontColor=#FFFFFF;strokeColor=#788AA3;" parent="1" vertex="1">
          <mxGeometry x="20" y="90" width="120" height="60" as="geometry" />
        </mxCell>
        <mxCell id="iZ6kkm9o-R-Be4P0EqjR-144" value="" style="shape=partialRectangle;whiteSpace=wrap;html=1;top=0;left=0;fillColor=none;fontSize=16;fontColor=#FFFFFF;strokeColor=#788AA3;" parent="1" vertex="1">
          <mxGeometry x="786" y="587" width="165" height="153" as="geometry" />
        </mxCell>
        <mxCell id="OLhAs3FMmAFrnda5y459-9" value="Light BnB&lt;br style=&quot;font-size: 19px;&quot;&gt;Entity Relationship Diagram" style="rounded=0;whiteSpace=wrap;html=1;fillColor=#B2C9AB;strokeColor=#788AA3;strokeWidth=2;fontSize=19;" vertex="1" parent="1">
          <mxGeometry x="709" y="143" width="197" height="92" as="geometry" />
        </mxCell>
      </root>
    </mxGraphModel>
  </diagram>
</mxfile>
